<svg width="1024" height="1024" viewBox="0 0 1024 1024" fill="none" xmlns="http://www.w3.org/2000/svg">
<g clip-path="url(#clip0_86_2)">
<rect width="1024" height="1024" fill="#0066FF"/>
<path d="M593.666 247.858C554.934 323.207 528.023 366.445 467.972 468.316C420.452 540.836 376.287 508.693 360.144 483.557C284.188 347.89 304.469 394.664 333.796 491.042C357.257 568.144 279.43 687.871 237.583 738.097C74.6294 921.329 194.69 830.828 275.09 762.674C432.654 638.804 545.787 595.01 550.497 694.184C555.206 793.358 571.478 760.344 620.834 664.568C660.318 587.947 738.331 505.708 772.402 474.166C805.552 443.477 990.066 279.031 781.713 439.503C573.36 599.975 578.276 412.478 608.448 286.661C638.62 160.845 627.815 181.426 593.666 247.858Z" fill="white" stroke="white" stroke-width="48"/>
</g>
<defs>
<clipPath id="clip0_86_2">
<rect width="1024" height="1024" fill="white"/>
</clipPath>
</defs>
</svg>
