<svg width="1024" height="1024" viewBox="0 0 1024 1024" fill="none" xmlns="http://www.w3.org/2000/svg">
<rect width="1024" height="1024" fill="#0066FF"/>
<path d="M739.079 644.593C802 740.5 718.5 934.68 501.132 894C164.5 831 253.252 644.593 255.972 639.882C271.01 613.835 326.463 497.573 548.087 550.879C759.169 601.651 634.559 667.233 564.198 659.262C493.838 651.291 274.083 597.47 269.991 475.14C266.611 374.084 355.719 334.106 501.132 375.638C650.866 418.405 624.65 531.114 519.924 494.027C415.626 457.092 209.389 333.724 328.983 181.12C443.894 34.4924 784.245 163.536 767.255 359.734" stroke="white" stroke-width="71" stroke-linejoin="round"/>
</svg>
